PathFileType	4	(X/Y/Z)	19_2_76_p0_0-385_filt_butterworth.trc
DataRate	CameraRate	NumFrames	NumMarkers	Units	OrigDataRate	OrigDataStartFrame	OrigNumFrames
60.0	60.0	5	27	m	60.0	336	385
Frame#	Time	RHip			RKnee			RAnkle			RBigToe			RSmallToe			RHeel			LHip			LKnee			LAnkle			LBigToe			LSmallToe			LHeel			Neck			Head			Nose			RShoulder			RElbow			RWrist			RThumb			RIndex			RPinky			LShoulder			LElbow			LWrist			LThumb			LIndex			LPinky			
		X1	Y1	Z1	X2	Y2	Z2	X3	Y3	Z3	X4	Y4	Z4	X5	Y5	Z5	X6	Y6	Z6	X7	Y7	Z7	X8	Y8	Z8	X9	Y9	Z9	X10	Y10	Z10	X11	Y11	Z11	X12	Y12	Z12	X13	Y13	Z13	X14	Y14	Z14	X15	Y15	Z15	X16	Y16	Z16	X17	Y17	Z17	X18	Y18	Z18	X19	Y19	Z19	X20	Y20	Z20	X21	Y21	Z21	X22	Y22	Z22	X23	Y23	Z23	X24	Y24	Z24	X25	Y25	Z25	X26	Y26	Z26	X27	Y27	Z27	
336	5.6	0.30846392710391596	0.9429559409571018	0.5454123241478465	0.27454299347236855	0.5059019097686539	0.5562888076593492	0.2696910709873255	0.06624750548738019	0.5869892615836014	0.2649131997369831	0.04792126268056205	0.4001988561120204	0.32972310701199636	0.0426102300393543	0.4329807814110819	0.23803380452085196	-0.01637238359918293	0.6497851083190811	0.08313390450719671	0.9315699126991696	0.5400632855355897	0.08701748120175883	0.49783685278982837	0.5560772452294995	0.09147202635205108	0.06539580760182354	0.555673247057872	0.11850625996696844	0.05748952612938156	0.37879000602503365	0.06368191661607846	0.06359677728995257	0.39794842003558145	0.11650689208102327	-0.007017811579293473	0.6123701922267712	0.1905628149511131	1.4780250856768478	0.5904576155839663	0.19410991000037947	1.7481890726091	0.47968363910405504	0.1743732100344172	1.5921845815997393	0.4540097490241422	0.34041225620793636	1.3997889263530856	0.5950845655449587	0.3876082161465406	1.1498019284024446	0.6573677515927471	0.4457032764470964	0.9098977245936477	0.671824931268351	0.4348779035547055	0.7883911192572475	0.6625292895127459	0.45207854134089576	0.7617148470844536	0.6998224135416315	0.41469600770800197	0.7561746444113456	0.6959595730925173	0.02979683682269511	1.4168980437972145	0.552778140977631	-0.041743694900393494	1.1616543702973858	0.6021440526201072	-0.06587464767943216	0.9507627926081909	0.5970696580179008	-0.0394420777263762	0.865394902058766	0.568043694661551	-0.053683976386882284	0.8437234665259161	0.5766215473856492	-0.06208338318915221	0.8438290599969884	0.5924120941317221	
337	5.616666666666666	0.3060313300246724	0.9403743901991155	0.5494532334022351	0.27255810958791116	0.50810080109851	0.5508703407695101	0.2690369052161852	0.06495838946666317	0.5871579247554288	0.2649526486997504	0.0479134346772078	0.4001733093499779	0.3310127240409738	0.045531384244756015	0.42901014852090136	0.23781806236428626	-0.01690356473818417	0.6487738165009146	0.08113899807601792	0.9290154215526173	0.5442404670545321	0.08664076796284785	0.49790890536625626	0.5552996610054296	0.09160913375115534	0.06451399550645036	0.5549175438727293	0.119519138705703	0.059273082718092035	0.37658359068208996	0.06331355466251017	0.06459787960390988	0.3966952436472809	0.1168706022230939	-0.00838868215884558	0.6138355285957476	0.1903685236065631	1.4776073564138106	0.5906727790237387	0.19338418249545372	1.7477334188176339	0.48088494655772107	0.17321067617016161	1.5919246595653784	0.45390099804408657	0.3413293621213912	1.399789260395245	0.592274487252988	0.39045050385062063	1.1453041121958418	0.6510412400511694	0.45474506526936026	0.9176290610687702	0.6376767871002826	0.44380118823027004	0.7933952226967348	0.6309200346198853	0.4671378495892953	0.7718744195660099	0.6536327572075022	0.42433535884947615	0.7600798065733808	0.6647671353479364	0.030535141367023885	1.41663014651726	0.5553163216132309	-0.04109190333659811	1.161311366039083	0.6008932652807693	-0.0674098754585672	0.9464766631206498	0.5937149135454548	-0.042170163192371185	0.853391657613407	0.5644523671702457	-0.05957010043288009	0.8326185350557792	0.567674466965875	-0.06604328897175742	0.83124349563677	0.588175964166413	
338	5.633333333333334	0.3035854927758199	0.9378138119159121	0.5531076856539842	0.2704681758965625	0.5101979023489825	0.545401973636583	0.2683730195653265	0.06392749315635612	0.5870483820138588	0.26502111605704415	0.047735381789467325	0.4001451475555101	0.3322792540366555	0.049512536160972245	0.42385744536463793	0.23756501335624985	-0.017433184102121538	0.6475593964549109	0.07894507397170941	0.926319141695576	0.5483626573552477	0.08627759564835334	0.49788506722349263	0.5543486912597858	0.09171582550500204	0.06372648625164795	0.5541045518800539	0.12027916102629449	0.06072606984651334	0.37479266603305217	0.0624900575403895	0.06495262864281952	0.39619662457849786	0.11705656584552813	-0.009599923508202003	0.614903444660959	0.1907102255460206	1.4772770682266965	0.5904521969502364	0.192494251725508	1.7473608213557192	0.48285647701330964	0.17240178541972911	1.591942592695421	0.45272063104354365	0.3421750495054805	1.3996038262107984	0.5897090775405867	0.3928125436466592	1.139474251577658	0.6472723848370925	0.46114823018895335	0.9233932484850037	0.6107093816303762	0.4509432047160089	0.7964999221480532	0.6025181540297846	0.4787231967929332	0.7785605536187805	0.6147856464465439	0.43261107856496245	0.7639910930371991	0.637972298556077	0.03150109036361308	1.416307037055049	0.5574781591437293	-0.04004033328174913	1.1613691915150415	0.5992334587089528	-0.06929637094285701	0.9418623605312605	0.5880052120617272	-0.047176839468670545	0.842653588442069	0.5555232098312647	-0.0681654435743	0.8243462479279894	0.5524379608102116	-0.07246784895244429	0.8205062413815712	0.5788927053225393	
339	5.65	0.30122087299852085	0.9355964786554773	0.5560446366641683	0.26840384341374757	0.5121816636033942	0.5400260945404545	0.2677092763339832	0.06322252292266967	0.5866501826133106	0.2651047608081109	0.047384176091625436	0.4000617081734261	0.3332087724601722	0.05343429731671775	0.4187958201524155	0.2372833859126467	-0.017931050114517445	0.646178958748791	0.07666799535310953	0.9236246266892021	0.5521615524034654	0.0859431166876442	0.49767481685322507	0.5532582467240972	0.09179913657144476	0.06298525959933794	0.5532440602235934	0.12069354619014744	0.06169577074192367	0.37362740360812857	0.061492036641809675	0.06484301062869699	0.3961364207238064	0.11708677926107547	-0.01054931352130508	0.6155246350821137	0.1917425384623121	1.477211343718675	0.5895253813984872	0.19153754237910037	1.7471028228043082	0.48515472480767896	0.17190611654643123	1.5922144336334834	0.45072870780456775	0.3428535744653032	1.3992851495863547	0.5877974607595458	0.3947351246174336	1.1332862368831822	0.6454194396384948	0.4645715740162499	0.9267666064652135	0.5917997144767648	0.45595442609132564	0.7977676922300889	0.5794153160683319	0.4858440205881849	0.7809621838192462	0.5867088678466497	0.4387754605138178	0.7680738881810693	0.6162441968067247	0.03254481009436294	1.4157680663193077	0.5588482110933112	-0.038851243575774325	1.1612453361416994	0.5974147777796528	-0.07152287113186351	0.9373750766356375	0.5777069627627947	-0.05428168724659099	0.8342670355026686	0.5410446692128794	-0.07827036455773051	0.8190932107735625	0.5329265386397336	-0.08134678139930299	0.8119468821160979	0.5664331736439157	
340	5.666666666666667	0.29899607015105534	0.9338228727432639	0.5580289642545441	0.2665222420565444	0.5140376379838936	0.5347503494157089	0.26707841439493685	0.06279058896924118	0.5859735480007406	0.26518070938254973	0.04698839897335956	0.3998892547789151	0.3336284696930666	0.05633050004345628	0.4150904866098415	0.2369809100422654	-0.01835656435376498	0.6446923764830479	0.07443416762749754	0.9210874865947063	0.5553273976604113	0.08565947465634646	0.4972602632790323	0.5520620504467892	0.0918861406271571	0.062285802294736556	0.552359553379193	0.12078836702966386	0.0621359189497895	0.3731190679053686	0.060649829303495814	0.06452520148634938	0.39616244389902017	0.11699277301563792	-0.011212221095406923	0.6157482904534144	0.19333576195862984	1.4774783215661367	0.5878940956304433	0.1907027313085926	1.7469126703195461	0.48766315019166917	0.17160103653106282	1.5926260722983596	0.44847607485619123	0.34335728346235517	1.398908188324986	0.5868675395022637	0.3964447650259515	1.127837818766578	0.6441215470313458	0.4653034850515295	0.928253726025551	0.5789268672087691	0.4588872843360078	0.7977808729541936	0.5619650615718331	0.4888201214534685	0.7798660522025075	0.5689288029810025	0.44283345267464824	0.7722152452429717	0.5986485532065245	0.03352492945822333	1.4150066736259022	0.5594256769455382	-0.037827511725162945	1.160750560624849	0.595389888237168	-0.07379505994858793	0.9339901129193549	0.5621864844095757	-0.06272705036007839	0.829219846433989	0.5220899491126842	-0.08846112755838699	0.8169925396108956	0.5109615562103871	-0.09205155082124221	0.8056329112868472	0.5534350894279646	
